<svg width="24" height="14" viewBox="0 0 24 14" fill="none" xmlns="http://www.w3.org/2000/svg">
<path d="M11.4287 11.7256C10.8428 12.2236 10.1895 12.6074 9.46875 12.877C8.74805 13.1406 7.99805 13.2725 7.21875 13.2725C6.62109 13.2725 6.04395 13.1934 5.4873 13.0352C4.93652 12.8828 4.4209 12.666 3.94043 12.3848C3.45996 12.0977 3.02051 11.7578 2.62207 11.3652C2.22363 10.9668 1.88379 10.5273 1.60254 10.0469C1.32129 9.56055 1.10156 9.03906 0.943359 8.48242C0.791016 7.92578 0.714844 7.34863 0.714844 6.75098C0.714844 6.15332 0.791016 5.5791 0.943359 5.02832C1.10156 4.47754 1.32129 3.96191 1.60254 3.48145C1.88379 2.99512 2.22363 2.55566 2.62207 2.16309C3.02051 1.76465 3.45996 1.4248 3.94043 1.14355C4.4209 0.862305 4.93652 0.645508 5.4873 0.493164C6.04395 0.334961 6.62109 0.255859 7.21875 0.255859C7.99805 0.255859 8.74805 0.390625 9.46875 0.660156C10.1895 0.923828 10.8428 1.30469 11.4287 1.80273L10.1104 4C9.72949 3.61328 9.29004 3.31152 8.79199 3.09473C8.29395 2.87207 7.76953 2.76074 7.21875 2.76074C6.66797 2.76074 6.14941 2.86621 5.66309 3.07715C5.18262 3.28809 4.76074 3.5752 4.39746 3.93848C4.03418 4.2959 3.74707 4.71777 3.53613 5.2041C3.3252 5.68457 3.21973 6.2002 3.21973 6.75098C3.21973 7.30762 3.3252 7.8291 3.53613 8.31543C3.74707 8.80176 4.03418 9.22656 4.39746 9.58984C4.76074 9.95312 5.18262 10.2402 5.66309 10.4512C6.14941 10.6621 6.66797 10.7676 7.21875 10.7676C7.53516 10.7676 7.84277 10.7295 8.1416 10.6533C8.44043 10.5771 8.72461 10.4717 8.99414 10.3369V6.75098H11.4287V11.7256ZM15.8936 2.91895V7.96387H18.416C18.7617 7.96387 19.0869 7.89941 19.3916 7.77051C19.6963 7.63574 19.9629 7.4541 20.1914 7.22559C20.4199 6.99707 20.5986 6.73047 20.7275 6.42578C20.8623 6.11523 20.9297 5.78711 20.9297 5.44141C20.9297 5.0957 20.8623 4.77051 20.7275 4.46582C20.5986 4.15527 20.4199 3.88574 20.1914 3.65723C19.9629 3.42871 19.6963 3.25 19.3916 3.12109C19.0869 2.98633 18.7617 2.91895 18.416 2.91895H15.8936ZM15.8936 13H13.3711V0.396484H18.416C18.8789 0.396484 19.3242 0.458008 19.752 0.581055C20.1797 0.698242 20.5781 0.868164 20.9473 1.09082C21.3223 1.30762 21.6621 1.57129 21.9668 1.88184C22.2773 2.18652 22.541 2.52637 22.7578 2.90137C22.9805 3.27637 23.1504 3.67773 23.2676 4.10547C23.3906 4.5332 23.4521 4.97852 23.4521 5.44141C23.4521 6.13281 23.3203 6.78613 23.0566 7.40137C22.793 8.01074 22.4326 8.54395 21.9756 9.00098C21.5186 9.45801 20.9824 9.81836 20.3672 10.082C19.7578 10.3457 19.1074 10.4775 18.416 10.4775H15.8936V13Z" fill="#EB5757"/>
</svg>
